<mxfile host="app.diagrams.net" agent="Mozilla/5.0 (Windows NT 10.0; Win64; x64) AppleWebKit/537.36 (KHTML, like Gecko) Chrome/135.0.0.0 Safari/537.36 Edg/135.0.0.0" version="26.2.12">
  <diagram name="Page-1" id="1lV17wyQeOZojrkLEhlb">
    <mxGraphModel dx="1671" dy="885" grid="1" gridSize="10" guides="1" tooltips="1" connect="1" arrows="1" fold="1" page="1" pageScale="1" pageWidth="827" pageHeight="1169" math="1" shadow="0">
      <root>
        <mxCell id="0" />
        <mxCell id="1" parent="0" />
        <mxCell id="ISckfuOA_f6tGfebP-Hw-1" value="SAP" style="shape=cylinder;whiteSpace=wrap;html=1;boundedLbl=1;backgroundOutline=1;fillColor=#dae8fc;strokeColor=#6c8ebf;" parent="1" vertex="1">
          <mxGeometry x="350" y="75" width="60" height="80" as="geometry" />
        </mxCell>
        <mxCell id="ISckfuOA_f6tGfebP-Hw-2" value="EcoInvent" style="shape=cloud;whiteSpace=wrap;html=1;fillColor=#dae8fc;strokeColor=#6c8ebf;" parent="1" vertex="1">
          <mxGeometry x="414" y="60" width="120" height="120" as="geometry" />
        </mxCell>
        <mxCell id="ISckfuOA_f6tGfebP-Hw-8" value="Data Model" style="swimlane;fontStyle=0;childLayout=stackLayout;horizontal=1;startSize=30;horizontalStack=0;resizeParent=1;resizeParentMax=0;resizeLast=0;collapsible=1;marginBottom=0;whiteSpace=wrap;html=1;fillColor=#fff2cc;strokeColor=#d6b656;" parent="1" vertex="1">
          <mxGeometry x="300" y="367" width="120" height="90" as="geometry" />
        </mxCell>
        <mxCell id="ISckfuOA_f6tGfebP-Hw-9" value="Activity Data (A)" style="text;strokeColor=none;fillColor=none;align=left;verticalAlign=middle;spacingLeft=4;spacingRight=4;overflow=hidden;points=[[0,0.5],[1,0.5]];portConstraint=eastwest;rotatable=0;whiteSpace=wrap;html=1;" parent="ISckfuOA_f6tGfebP-Hw-8" vertex="1">
          <mxGeometry y="30" width="120" height="30" as="geometry" />
        </mxCell>
        <mxCell id="ISckfuOA_f6tGfebP-Hw-10" value="&lt;div&gt;Emission Factors (EF)&lt;/div&gt;" style="text;strokeColor=none;fillColor=none;align=left;verticalAlign=middle;spacingLeft=4;spacingRight=4;overflow=hidden;points=[[0,0.5],[1,0.5]];portConstraint=eastwest;rotatable=0;whiteSpace=wrap;html=1;" parent="ISckfuOA_f6tGfebP-Hw-8" vertex="1">
          <mxGeometry y="60" width="120" height="30" as="geometry" />
        </mxCell>
        <mxCell id="ISckfuOA_f6tGfebP-Hw-16" value="" style="endArrow=classic;html=1;rounded=0;exitX=0.319;exitY=0.865;exitDx=0;exitDy=0;exitPerimeter=0;entryX=1;entryY=0.5;entryDx=0;entryDy=0;" parent="1" source="ISckfuOA_f6tGfebP-Hw-2" target="ISckfuOA_f6tGfebP-Hw-10" edge="1">
          <mxGeometry width="50" height="50" relative="1" as="geometry">
            <mxPoint x="390" y="390" as="sourcePoint" />
            <mxPoint x="430" y="440" as="targetPoint" />
            <Array as="points">
              <mxPoint x="450" y="442" />
            </Array>
          </mxGeometry>
        </mxCell>
        <mxCell id="ISckfuOA_f6tGfebP-Hw-17" value="Uncertainties?" style="html=1;dashed=0;whiteSpace=wrap;fillColor=#dae8fc;strokeColor=#6c8ebf;" parent="1" vertex="1">
          <mxGeometry x="90" y="95" width="80" height="50" as="geometry" />
        </mxCell>
        <mxCell id="ISckfuOA_f6tGfebP-Hw-18" value="" style="endArrow=none;dashed=1;html=1;dashPattern=1 3;strokeWidth=2;rounded=0;exitX=0.5;exitY=1;exitDx=0;exitDy=0;" parent="1" source="ISckfuOA_f6tGfebP-Hw-17" edge="1">
          <mxGeometry width="50" height="50" relative="1" as="geometry">
            <mxPoint x="390" y="390" as="sourcePoint" />
            <mxPoint x="220" y="200" as="targetPoint" />
            <Array as="points">
              <mxPoint x="130" y="200" />
            </Array>
          </mxGeometry>
        </mxCell>
        <mxCell id="ISckfuOA_f6tGfebP-Hw-19" value="Quantities?" style="html=1;dashed=0;whiteSpace=wrap;fillColor=#dae8fc;strokeColor=#6c8ebf;" parent="1" vertex="1">
          <mxGeometry x="175" y="95" width="75" height="50" as="geometry" />
        </mxCell>
        <mxCell id="ISckfuOA_f6tGfebP-Hw-20" value="" style="endArrow=none;dashed=1;html=1;dashPattern=1 3;strokeWidth=2;rounded=0;entryX=0.5;entryY=1;entryDx=0;entryDy=0;" parent="1" target="ISckfuOA_f6tGfebP-Hw-19" edge="1">
          <mxGeometry width="50" height="50" relative="1" as="geometry">
            <mxPoint x="213" y="200" as="sourcePoint" />
            <mxPoint x="360" y="230" as="targetPoint" />
          </mxGeometry>
        </mxCell>
        <mxCell id="ISckfuOA_f6tGfebP-Hw-21" value="PCF calculation" style="shape=rhombus;html=1;dashed=0;whiteSpace=wrap;perimeter=rhombusPerimeter;fillColor=#ffe6cc;strokeColor=#d79b00;" parent="1" vertex="1">
          <mxGeometry x="304" y="487" width="110" height="100" as="geometry" />
        </mxCell>
        <mxCell id="ISckfuOA_f6tGfebP-Hw-22" value="Output" style="shape=parallelogram;perimeter=parallelogramPerimeter;whiteSpace=wrap;html=1;dashed=0;fillColor=#f8cecc;strokeColor=#b85450;" parent="1" vertex="1">
          <mxGeometry x="275" y="607" width="170" height="90" as="geometry" />
        </mxCell>
        <mxCell id="ISckfuOA_f6tGfebP-Hw-24" value="" style="endArrow=classic;html=1;rounded=0;exitX=0.484;exitY=1.006;exitDx=0;exitDy=0;exitPerimeter=0;entryX=0.5;entryY=0;entryDx=0;entryDy=0;" parent="1" source="ISckfuOA_f6tGfebP-Hw-10" target="ISckfuOA_f6tGfebP-Hw-21" edge="1">
          <mxGeometry width="50" height="50" relative="1" as="geometry">
            <mxPoint x="250" y="427" as="sourcePoint" />
            <mxPoint x="300" y="377" as="targetPoint" />
          </mxGeometry>
        </mxCell>
        <mxCell id="ISckfuOA_f6tGfebP-Hw-25" value="" style="endArrow=classic;html=1;rounded=0;exitX=0.5;exitY=1;exitDx=0;exitDy=0;entryX=0.5;entryY=0;entryDx=0;entryDy=0;" parent="1" source="ISckfuOA_f6tGfebP-Hw-21" target="ISckfuOA_f6tGfebP-Hw-22" edge="1">
          <mxGeometry width="50" height="50" relative="1" as="geometry">
            <mxPoint x="359" y="767" as="sourcePoint" />
            <mxPoint x="360" y="784" as="targetPoint" />
          </mxGeometry>
        </mxCell>
        <mxCell id="ISckfuOA_f6tGfebP-Hw-26" value="Data Source Questions:&lt;div&gt;- Where do the uncertainties derive from?&lt;/div&gt;&lt;div&gt;- Are Quantities also in SAP activity date?&lt;/div&gt;&lt;div&gt;- How fixed/ constant are the&amp;nbsp;&lt;/div&gt;&lt;div&gt;&lt;span style=&quot;background-color: initial;&quot;&gt;different activities per product?&lt;/span&gt;&lt;/div&gt;&lt;div&gt;&lt;span style=&quot;background-color: initial;&quot;&gt;&lt;br&gt;&lt;/span&gt;&lt;/div&gt;" style="text;html=1;align=left;verticalAlign=middle;resizable=0;points=[];autosize=1;strokeColor=#6c8ebf;fillColor=#dae8fc;" parent="1" vertex="1">
          <mxGeometry x="670" y="55" width="240" height="100" as="geometry" />
        </mxCell>
        <mxCell id="ISckfuOA_f6tGfebP-Hw-27" value="Activity&lt;div&gt;Recipes&lt;/div&gt;" style="html=1;dashed=0;whiteSpace=wrap;fillColor=#dae8fc;strokeColor=#6c8ebf;" parent="1" vertex="1">
          <mxGeometry x="260" y="95" width="75" height="50" as="geometry" />
        </mxCell>
        <mxCell id="ISckfuOA_f6tGfebP-Hw-28" value="" style="endArrow=none;dashed=1;html=1;dashPattern=1 3;strokeWidth=2;rounded=0;entryX=0.5;entryY=1;entryDx=0;entryDy=0;" parent="1" target="ISckfuOA_f6tGfebP-Hw-27" edge="1">
          <mxGeometry width="50" height="50" relative="1" as="geometry">
            <mxPoint x="298" y="200" as="sourcePoint" />
            <mxPoint x="223" y="155" as="targetPoint" />
          </mxGeometry>
        </mxCell>
        <mxCell id="ISckfuOA_f6tGfebP-Hw-29" value="Currently, there is not a real data model.&amp;nbsp;&lt;div&gt;The Excel acts as a data model through&amp;nbsp;&lt;/div&gt;&lt;div&gt;hardcoding of all data queries and connections.&amp;nbsp;&lt;/div&gt;" style="text;html=1;align=left;verticalAlign=middle;resizable=0;points=[];autosize=1;strokeColor=#d6b656;fillColor=#fff2cc;" parent="1" vertex="1">
          <mxGeometry x="670" y="355" width="280" height="60" as="geometry" />
        </mxCell>
        <mxCell id="ISckfuOA_f6tGfebP-Hw-30" value="The main question is: which data is missing and requires user input?&lt;div&gt;&amp;nbsp;Or is there any other data which the user needs to check?&lt;/div&gt;&lt;div&gt;&lt;br&gt;&lt;/div&gt;&lt;div&gt;The reason behind this question,&amp;nbsp;&lt;/div&gt;&lt;div&gt;is that typically you don&#39;t want your calculations to be editable by any user.&lt;/div&gt;&lt;div&gt;You might even want to hide it.&amp;nbsp;&lt;/div&gt;" style="text;html=1;align=left;verticalAlign=middle;resizable=0;points=[];autosize=1;strokeColor=#d79b00;fillColor=#ffe6cc;" parent="1" vertex="1">
          <mxGeometry x="670" y="477" width="420" height="100" as="geometry" />
        </mxCell>
        <mxCell id="ISckfuOA_f6tGfebP-Hw-31" value="Who should receive and review the output?&lt;div&gt;Straight to the customer?&amp;nbsp; or filtered?&lt;/div&gt;&lt;div&gt;Is there any sensitive data? with whom may it be shared/ be available to?&lt;/div&gt;&lt;div&gt;&lt;br&gt;&lt;/div&gt;&lt;div&gt;Which insights does the customer need?&lt;/div&gt;&lt;div&gt;What would be &quot;Nice-to-have&quot;?&lt;/div&gt;&lt;div&gt;Should the output be send back to one of the client platforms?&lt;/div&gt;&lt;div&gt;Should the output promote actions and activities to improve PCF?&amp;nbsp;&lt;/div&gt;" style="text;html=1;align=left;verticalAlign=middle;resizable=0;points=[];autosize=1;strokeColor=#b85450;fillColor=#f8cecc;" parent="1" vertex="1">
          <mxGeometry x="670" y="587" width="410" height="130" as="geometry" />
        </mxCell>
        <mxCell id="ISckfuOA_f6tGfebP-Hw-33" value="&lt;div style=&quot;font-size: 13px;&quot;&gt;&lt;font style=&quot;font-size: 13px;&quot;&gt;&lt;i&gt;&lt;b&gt;PCF:&lt;/b&gt;&lt;/i&gt;&lt;/font&gt;&lt;/div&gt;&lt;div style=&quot;font-size: 13px;&quot;&gt;&lt;font style=&quot;font-size: 13px;&quot;&gt;&lt;i&gt;Per Product&lt;/i&gt;&lt;/font&gt;&lt;/div&gt;&lt;div style=&quot;font-size: 13px;&quot;&gt;&lt;font style=&quot;font-size: 13px;&quot;&gt;&lt;i&gt;Per Batch&lt;/i&gt;&lt;/font&gt;&lt;/div&gt;&lt;div style=&quot;font-size: 13px;&quot;&gt;&lt;font style=&quot;font-size: 13px;&quot;&gt;&lt;i&gt;Per Type&lt;/i&gt;&lt;/font&gt;&lt;/div&gt;&lt;div style=&quot;font-size: 13px;&quot;&gt;&lt;font style=&quot;font-size: 13px;&quot;&gt;&lt;i&gt;Per Country&lt;/i&gt;&lt;/font&gt;&lt;/div&gt;&lt;div style=&quot;font-size: 13px;&quot;&gt;&lt;font style=&quot;font-size: 13px;&quot;&gt;&lt;i&gt;Per...&lt;/i&gt;&lt;/font&gt;&lt;/div&gt;" style="whiteSpace=wrap;html=1;aspect=fixed;align=left;" parent="1" vertex="1">
          <mxGeometry x="480" y="607" width="110" height="110" as="geometry" />
        </mxCell>
        <mxCell id="ISckfuOA_f6tGfebP-Hw-34" value="$$\frac{\text{A} \times \text{EF}_1 + \text{A} \times \text{EF}_2 + \text{A} \times \text{EF}_3}{\text{Batch Reference (kg)}}$$" style="text;html=1;align=center;verticalAlign=middle;resizable=0;points=[];autosize=1;strokeColor=none;fillColor=none;" parent="1" vertex="1">
          <mxGeometry x="200" y="520" width="670" height="30" as="geometry" />
        </mxCell>
        <mxCell id="ISckfuOA_f6tGfebP-Hw-35" value="&lt;i&gt;Each Activity&#39;s subcategory is matched to associated Emission Factors&lt;/i&gt;" style="whiteSpace=wrap;html=1;" parent="1" vertex="1">
          <mxGeometry x="475" y="367" width="120" height="85" as="geometry" />
        </mxCell>
        <mxCell id="3rBnAiRfaH8DOvzf-rrY-1" value="" style="endArrow=classic;html=1;rounded=0;exitX=0.5;exitY=1;exitDx=0;exitDy=0;entryX=0.5;entryY=0;entryDx=0;entryDy=0;" edge="1" parent="1" source="ISckfuOA_f6tGfebP-Hw-1" target="3rBnAiRfaH8DOvzf-rrY-3">
          <mxGeometry width="50" height="50" relative="1" as="geometry">
            <mxPoint x="700" y="410" as="sourcePoint" />
            <mxPoint x="250" y="265" as="targetPoint" />
            <Array as="points">
              <mxPoint x="380" y="200" />
              <mxPoint x="220" y="200" />
            </Array>
          </mxGeometry>
        </mxCell>
        <mxCell id="3rBnAiRfaH8DOvzf-rrY-3" value="Data Preparation, Mapping &amp;amp; Integration" style="html=1;dashed=0;whiteSpace=wrap;fillColor=#d5e8d4;strokeColor=#82b366;" vertex="1" parent="1">
          <mxGeometry x="160" y="260" width="120" height="90" as="geometry" />
        </mxCell>
        <mxCell id="3rBnAiRfaH8DOvzf-rrY-4" value="" style="endArrow=classic;html=1;rounded=0;exitX=0.5;exitY=1;exitDx=0;exitDy=0;" edge="1" parent="1" source="3rBnAiRfaH8DOvzf-rrY-3" target="ISckfuOA_f6tGfebP-Hw-9">
          <mxGeometry width="50" height="50" relative="1" as="geometry">
            <mxPoint x="700" y="410" as="sourcePoint" />
            <mxPoint x="750" y="360" as="targetPoint" />
            <Array as="points">
              <mxPoint x="220" y="410" />
            </Array>
          </mxGeometry>
        </mxCell>
        <mxCell id="3rBnAiRfaH8DOvzf-rrY-5" value="&lt;div style=&quot;&quot;&gt;Typically, a database stores data tables with&amp;nbsp;&lt;/div&gt;&lt;div style=&quot;&quot;&gt;hard-coded column types including a unique id per row.&lt;/div&gt;&lt;div style=&quot;&quot;&gt;Data connections are subsequently made through&amp;nbsp;&lt;/div&gt;&lt;div style=&quot;&quot;&gt;relating the ids of different tables.&lt;/div&gt;&lt;div style=&quot;&quot;&gt;&lt;br&gt;&lt;/div&gt;&lt;div style=&quot;&quot;&gt;&lt;div&gt;The use of an identifier is&amp;nbsp;&lt;span style=&quot;background-color: transparent; color: light-dark(rgb(0, 0, 0), rgb(255, 255, 255));&quot;&gt;essential to guarantee traceability and uniqueness&lt;/span&gt;&lt;/div&gt;&lt;div&gt;of data base entries. Excel is not made to do this in a secure manner.&amp;nbsp;&lt;/div&gt;&lt;div&gt;&lt;br&gt;&lt;/div&gt;&lt;/div&gt;" style="text;html=1;align=left;verticalAlign=middle;resizable=0;points=[];autosize=1;strokeColor=#82b366;fillColor=#d5e8d4;" vertex="1" parent="1">
          <mxGeometry x="670" y="190" width="430" height="130" as="geometry" />
        </mxCell>
        <mxCell id="3rBnAiRfaH8DOvzf-rrY-6" value="&lt;i&gt;Data Availability check&lt;/i&gt;&lt;div&gt;&lt;i&gt;Data Mapping &amp;amp; Clustering&lt;/i&gt;&lt;/div&gt;&lt;div&gt;&lt;i&gt;Extraction &amp;amp; Collection&lt;/i&gt;&lt;/div&gt;&lt;div&gt;&lt;i&gt;Unit Conversion&lt;/i&gt;&lt;/div&gt;&lt;div&gt;&lt;i&gt;Analysis &amp;amp; Categorization&lt;/i&gt;&lt;/div&gt;&lt;div&gt;&lt;i&gt;Priorization &amp;amp; Improvement Strategy&lt;/i&gt;&lt;/div&gt;" style="whiteSpace=wrap;html=1;align=left;" vertex="1" parent="1">
          <mxGeometry x="460" y="240" width="195" height="100" as="geometry" />
        </mxCell>
        <mxCell id="3rBnAiRfaH8DOvzf-rrY-7" value="Action" style="shape=document;whiteSpace=wrap;html=1;boundedLbl=1;dashed=0;flipH=1;fillColor=#e1d5e7;strokeColor=#9673a6;" vertex="1" parent="1">
          <mxGeometry x="275" y="750" width="161" height="100" as="geometry" />
        </mxCell>
        <mxCell id="3rBnAiRfaH8DOvzf-rrY-8" value="The most important step is that the result are actually used.&amp;nbsp;&lt;div&gt;Calculating the PCF just for compliance and reporting purposes typically means that there is no strategy for improvements.&amp;nbsp;&lt;/div&gt;&lt;div&gt;Most of the time it is more motivating to be ahead of the curve, rather than behind it. Entailing a lot of effort to comply to the minimal requirements.&lt;br&gt;&lt;div&gt;The Output should be delivered in such a way that management can easily create and corrective actions and improvements&lt;/div&gt;&lt;/div&gt;&lt;div&gt;&lt;br&gt;&lt;/div&gt;&lt;div&gt;Some points to keep in mind:&lt;/div&gt;&lt;div&gt;Chemical companies are typically mid supply chain. Which means they have to supply PCF data upstream and downstream.&lt;/div&gt;&lt;div&gt;To reduce PCF overtime, data should be transparent and logically structured between suppliers to enable improvements throughout the supply chain.&lt;/div&gt;&lt;div&gt;&lt;br&gt;&lt;/div&gt;&lt;div&gt;The output will contain a lot of uncertainties. This will improve overtime, but it is important that management has a clear direction of improvement.&lt;/div&gt;&lt;div&gt;This typically means to prioritize the &quot;big-hitters&quot;, and put the lower PCF contributors on a lower priority. Ideally the output would clearly indicate.&amp;nbsp;&lt;/div&gt;&lt;div&gt;- Which activity data or product value chain to improve?&lt;/div&gt;&lt;div&gt;- How this can be achieved?&lt;/div&gt;&lt;div&gt;- What effect it will have on the overall PCF (reduction of GHG or reduced uncertainties)&lt;/div&gt;" style="text;html=1;align=left;verticalAlign=middle;resizable=0;points=[];autosize=1;strokeColor=#9673a6;fillColor=#e1d5e7;" vertex="1" parent="1">
          <mxGeometry x="470" y="745" width="810" height="210" as="geometry" />
        </mxCell>
        <mxCell id="3rBnAiRfaH8DOvzf-rrY-9" value="" style="endArrow=classic;html=1;rounded=0;exitX=0.5;exitY=1;exitDx=0;exitDy=0;entryX=0.476;entryY=-0.029;entryDx=0;entryDy=0;entryPerimeter=0;" edge="1" parent="1" source="ISckfuOA_f6tGfebP-Hw-22" target="3rBnAiRfaH8DOvzf-rrY-7">
          <mxGeometry width="50" height="50" relative="1" as="geometry">
            <mxPoint x="700" y="750" as="sourcePoint" />
            <mxPoint x="750" y="700" as="targetPoint" />
          </mxGeometry>
        </mxCell>
        <mxCell id="3rBnAiRfaH8DOvzf-rrY-10" value="" style="curved=1;endArrow=classic;html=1;rounded=0;" edge="1" parent="1" source="3rBnAiRfaH8DOvzf-rrY-7">
          <mxGeometry width="50" height="50" relative="1" as="geometry">
            <mxPoint x="840" y="540" as="sourcePoint" />
            <mxPoint x="100" y="170" as="targetPoint" />
            <Array as="points">
              <mxPoint x="150" y="610" />
              <mxPoint x="190" y="480" />
              <mxPoint x="310" y="440" />
              <mxPoint x="160" y="480" />
              <mxPoint x="80" y="410" />
              <mxPoint x="90" y="330" />
              <mxPoint x="150" y="310" />
              <mxPoint x="110" y="320" />
              <mxPoint x="40" y="240" />
            </Array>
          </mxGeometry>
        </mxCell>
      </root>
    </mxGraphModel>
  </diagram>
</mxfile>
